<svg xmlns="http://www.w3.org/2000/svg" xmlns:xlink="http://www.w3.org/1999/xlink" version="1.1" width="256" height="256" viewBox="0 0 256 256" xml:space="preserve">
<desc>Created with Fabric.js 1.7.22</desc>
<defs>
</defs>
<g transform="translate(128 128) scale(0.72 0.72)" style="">
	<g style="stroke: none; stroke-width: 0; stroke-dasharray: none; stroke-linecap: butt; stroke-linejoin: miter; stroke-miterlimit: 10; fill: none; fill-rule: nonzero; opacity: 1;" transform="translate(-175.05 -175.05000000000004) scale(3.89 3.89)" >
	<path d="M 70.629 88.243 H 26.011 c -1.937 0 -3.507 -1.57 -3.507 -3.507 V 53.389 h 51.632 v 31.346 C 74.136 86.672 72.566 88.243 70.629 88.243 z" style="stroke: none; stroke-width: 1; stroke-dasharray: none; stroke-linecap: butt; stroke-linejoin: miter; stroke-miterlimit: 10; fill: rgb(167,140,214); fill-rule: nonzero; opacity: 1;" transform=" matrix(1 0 0 1 0 0) " stroke-linecap="round" />
	<rect x="43.67" y="53.39" rx="0" ry="0" width="9.3" height="34.85" style="stroke: none; stroke-width: 1; stroke-dasharray: none; stroke-linecap: butt; stroke-linejoin: miter; stroke-miterlimit: 10; fill: rgb(142,226,225); fill-rule: nonzero; opacity: 1;" transform=" matrix(1 0 0 1 0 0) "/>
	<path d="M 44.007 31.834 L 7.498 68.343 l -4.424 -4.424 c -1.37 -1.37 -1.37 -3.59 0 -4.96 L 34.623 27.41 c 1.37 -1.37 3.59 -1.37 4.96 0 L 44.007 31.834 z" style="stroke: none; stroke-width: 1; stroke-dasharray: none; stroke-linecap: butt; stroke-linejoin: miter; stroke-miterlimit: 10; fill: rgb(167,140,214); fill-rule: nonzero; opacity: 1;" transform=" matrix(1 0 0 1 0 0) " stroke-linecap="round" />
	<rect x="17.65" y="41.76" rx="0" ry="0" width="9.3" height="9.76" style="stroke: none; stroke-width: 1; stroke-dasharray: none; stroke-linecap: butt; stroke-linejoin: miter; stroke-miterlimit: 10; fill: rgb(142,226,225); fill-rule: nonzero; opacity: 1;" transform=" matrix(0.7071 -0.7071 0.7071 0.7071 -26.4454 29.4283) "/>
	<path d="M 18.848 43.184 l 1.05 -13.305 c 0.33 -4.188 5.417 -6.064 8.388 -3.093 l 0 0 c 1.922 1.922 1.922 5.039 0 6.961 L 18.848 43.184 z" style="stroke: none; stroke-width: 1; stroke-dasharray: none; stroke-linecap: butt; stroke-linejoin: miter; stroke-miterlimit: 10; fill: rgb(142,226,225); fill-rule: nonzero; opacity: 1;" transform=" matrix(1 0 0 1 0 0) " stroke-linecap="round" />
	<path d="M 18.848 43.184 l -13.305 1.05 c -4.188 0.33 -6.064 5.417 -3.093 8.388 l 0 0 c 1.922 1.922 5.039 1.922 6.961 0 L 18.848 43.184 z" style="stroke: none; stroke-width: 1; stroke-dasharray: none; stroke-linecap: butt; stroke-linejoin: miter; stroke-miterlimit: 10; fill: rgb(142,226,225); fill-rule: nonzero; opacity: 1;" transform=" matrix(1 0 0 1 0 0) " stroke-linecap="round" />
	<path d="M 70.629 89.243 H 26.012 c -2.485 0 -4.507 -2.022 -4.507 -4.507 V 53.389 c 0 -0.553 0.448 -1 1 -1 h 51.632 c 0.553 0 1 0.447 1 1 v 31.346 C 75.136 87.221 73.114 89.243 70.629 89.243 z M 23.504 54.389 v 30.346 c 0 1.383 1.125 2.507 2.507 2.507 h 44.617 c 1.383 0 2.507 -1.125 2.507 -2.507 V 54.389 H 23.504 z" style="stroke: none; stroke-width: 1; stroke-dasharray: none; stroke-linecap: butt; stroke-linejoin: miter; stroke-miterlimit: 10; fill: rgb(0,0,0); fill-rule: nonzero; opacity: 1;" transform=" matrix(1 0 0 1 0 0) " stroke-linecap="round" />
	<path d="M 52.97 89.243 h -9.3 c -0.552 0 -1 -0.447 -1 -1 V 53.389 c 0 -0.553 0.448 -1 1 -1 h 9.3 c 0.553 0 1 0.447 1 1 v 34.854 C 53.97 88.796 53.523 89.243 52.97 89.243 z M 44.67 87.243 h 7.301 V 54.389 H 44.67 V 87.243 z" style="stroke: none; stroke-width: 1; stroke-dasharray: none; stroke-linecap: butt; stroke-linejoin: miter; stroke-miterlimit: 10; fill: rgb(0,0,0); fill-rule: nonzero; opacity: 1;" transform=" matrix(1 0 0 1 0 0) " stroke-linecap="round" />
	<path d="M 7.498 69.343 c -0.256 0 -0.512 -0.098 -0.707 -0.293 l -4.424 -4.424 c -1.758 -1.758 -1.758 -4.617 0 -6.374 l 31.549 -31.549 c 0.851 -0.851 1.983 -1.321 3.187 -1.321 c 1.204 0 2.336 0.469 3.187 1.321 l 4.424 4.424 c 0.391 0.391 0.391 1.023 0 1.414 L 8.205 69.05 C 8.01 69.245 7.754 69.343 7.498 69.343 z M 37.103 27.382 c -0.67 0 -1.3 0.261 -1.773 0.735 L 3.781 59.666 c -0.977 0.977 -0.977 2.569 0 3.546 l 3.717 3.717 l 35.095 -35.095 l -3.717 -3.717 C 38.402 27.643 37.773 27.382 37.103 27.382 z" style="stroke: none; stroke-width: 1; stroke-dasharray: none; stroke-linecap: butt; stroke-linejoin: miter; stroke-miterlimit: 10; fill: rgb(0,0,0); fill-rule: nonzero; opacity: 1;" transform=" matrix(1 0 0 1 0 0) " stroke-linecap="round" />
	<path d="M 18.848 44.185 c -0.141 0 -0.284 -0.03 -0.418 -0.092 c -0.38 -0.175 -0.611 -0.569 -0.578 -0.987 l 1.05 -13.305 c 0.184 -2.331 1.661 -4.282 3.855 -5.091 c 2.194 -0.809 4.583 -0.285 6.236 1.369 c 2.309 2.309 2.309 6.066 0 8.375 l -9.437 9.438 C 19.364 44.083 19.108 44.185 18.848 44.185 z M 24.843 26.332 c -0.462 0 -0.932 0.083 -1.395 0.254 c -1.475 0.544 -2.429 1.804 -2.553 3.372 l -0.837 10.603 l 7.52 -7.52 c 1.529 -1.53 1.529 -4.018 0 -5.547 C 26.817 26.731 25.85 26.332 24.843 26.332 z" style="stroke: none; stroke-width: 1; stroke-dasharray: none; stroke-linecap: butt; stroke-linejoin: miter; stroke-miterlimit: 10; fill: rgb(0,0,0); fill-rule: nonzero; opacity: 1;" transform=" matrix(1 0 0 1 0 0) " stroke-linecap="round" />
	<path d="M 5.93 55.064 c -1.582 0 -3.069 -0.616 -4.187 -1.735 c -1.654 -1.653 -2.178 -4.042 -1.369 -6.236 c 0.809 -2.194 2.759 -3.671 5.091 -3.855 l 13.305 -1.05 c 0.417 -0.026 0.811 0.198 0.987 0.578 s 0.095 0.83 -0.201 1.126 l -9.438 9.437 C 8.999 54.448 7.512 55.064 5.93 55.064 z M 16.224 44.394 L 5.622 45.231 c -1.567 0.124 -2.828 1.078 -3.372 2.553 c -0.544 1.474 -0.205 3.019 0.907 4.13 c 1.482 1.482 4.065 1.482 5.547 0 L 16.224 44.394 z" style="stroke: none; stroke-width: 1; stroke-dasharray: none; stroke-linecap: butt; stroke-linejoin: miter; stroke-miterlimit: 10; fill: rgb(0,0,0); fill-rule: nonzero; opacity: 1;" transform=" matrix(1 0 0 1 0 0) " stroke-linecap="round" />
	<path d="M 22.464 54.376 c -0.256 0 -0.512 -0.098 -0.707 -0.293 l -6.904 -6.903 c -0.187 -0.187 -0.293 -0.441 -0.293 -0.707 c 0 -0.266 0.105 -0.519 0.293 -0.707 l 6.577 -6.577 c 0.375 -0.375 1.039 -0.375 1.414 0 l 6.904 6.904 c 0.187 0.187 0.293 0.441 0.293 0.707 c 0 0.266 -0.105 0.519 -0.293 0.707 l -6.577 6.576 C 22.976 54.279 22.72 54.376 22.464 54.376 z M 16.974 46.473 l 5.49 5.489 l 5.163 -5.162 l -5.49 -5.49 L 16.974 46.473 z" style="stroke: none; stroke-width: 1; stroke-dasharray: none; stroke-linecap: butt; stroke-linejoin: miter; stroke-miterlimit: 10; fill: rgb(0,0,0); fill-rule: nonzero; opacity: 1;" transform=" matrix(1 0 0 1 0 0) " stroke-linecap="round" />
	<polygon points="52.7,32.69 55.88,35.55 60.05,34.55 58.31,38.47 60.55,42.12 56.29,41.67 53.51,44.93 52.61,40.74 48.66,39.1 52.36,36.96 " style="stroke: none; stroke-width: 1; stroke-dasharray: none; stroke-linecap: butt; stroke-linejoin: miter; stroke-miterlimit: 10; fill: rgb(255,200,114); fill-rule: nonzero; opacity: 1;" transform="  matrix(1 0 0 1 0 0) "/>
	<polygon points="82.58,25.89 77.54,30.43 70.94,28.84 73.69,35.04 70.15,40.83 76.9,40.12 81.3,45.28 82.72,38.65 88.99,36.05 83.11,32.65 " style="stroke: none; stroke-width: 1; stroke-dasharray: none; stroke-linecap: butt; stroke-linejoin: miter; stroke-miterlimit: 10; fill: rgb(255,200,114); fill-rule: nonzero; opacity: 1;" transform="  matrix(1 0 0 1 0 0) "/>
	<polygon points="55.97,1.77 62.02,7.2 69.92,5.3 66.62,12.73 70.87,19.66 62.78,18.82 57.51,25 55.81,17.05 48.3,13.94 55.34,9.87 " style="stroke: none; stroke-width: 1; stroke-dasharray: none; stroke-linecap: butt; stroke-linejoin: miter; stroke-miterlimit: 10; fill: rgb(255,200,114); fill-rule: nonzero; opacity: 1;" transform="  matrix(1 0 0 1 0 0) "/>
	<path d="M 53.507 45.943 c -0.083 0 -0.166 -0.01 -0.249 -0.031 c -0.372 -0.094 -0.66 -0.393 -0.74 -0.769 l -0.783 -3.669 l -3.466 -1.435 c -0.356 -0.147 -0.596 -0.483 -0.622 -0.868 c -0.025 -0.384 0.17 -0.749 0.503 -0.942 l 3.247 -1.878 l 0.294 -3.741 c 0.031 -0.384 0.276 -0.717 0.633 -0.86 c 0.358 -0.141 0.764 -0.07 1.052 0.187 l 2.79 2.508 l 3.648 -0.876 c 0.369 -0.092 0.766 0.039 1.013 0.336 c 0.246 0.296 0.303 0.706 0.147 1.058 l -1.524 3.428 l 1.961 3.199 c 0.201 0.328 0.198 0.742 -0.007 1.068 c -0.204 0.325 -0.58 0.504 -0.96 0.467 l -3.732 -0.389 l -2.436 2.853 C 54.081 45.816 53.798 45.943 53.507 45.943 z M 50.935 38.953 L 53 39.808 c 0.307 0.127 0.532 0.398 0.601 0.723 l 0.467 2.185 l 1.451 -1.7 c 0.216 -0.252 0.546 -0.383 0.874 -0.349 l 2.223 0.232 l -1.168 -1.905 c -0.174 -0.283 -0.198 -0.635 -0.062 -0.939 l 0.908 -2.041 l -2.173 0.521 c -0.321 0.079 -0.665 -0.008 -0.912 -0.231 l -1.662 -1.494 l -0.175 2.228 c -0.027 0.331 -0.214 0.629 -0.502 0.796 L 50.935 38.953 z M 52.363 36.959 h 0.01 H 52.363 z" style="stroke: none; stroke-width: 1; stroke-dasharray: none; stroke-linecap: butt; stroke-linejoin: miter; stroke-miterlimit: 10; fill: rgb(0,0,0); fill-rule: nonzero; opacity: 1;" transform=" matrix(1 0 0 1 0 0) " stroke-linecap="round" />
	<path d="M 81.303 46.295 c -0.291 0 -0.575 -0.126 -0.769 -0.355 l -4.061 -4.756 l -6.22 0.649 c -0.381 0.033 -0.755 -0.142 -0.96 -0.467 c -0.205 -0.325 -0.208 -0.74 -0.007 -1.068 l 3.269 -5.332 l -2.54 -5.715 c -0.156 -0.352 -0.099 -0.762 0.147 -1.058 c 0.246 -0.297 0.641 -0.429 1.013 -0.336 l 6.082 1.461 l 4.65 -4.181 c 0.287 -0.257 0.695 -0.329 1.052 -0.187 c 0.357 0.143 0.602 0.476 0.633 0.86 l 0.49 6.234 l 5.414 3.131 c 0.333 0.193 0.527 0.558 0.503 0.942 c -0.026 0.384 -0.267 0.72 -0.622 0.868 l -5.779 2.392 l -1.306 6.116 c -0.08 0.377 -0.367 0.675 -0.74 0.769 C 81.469 46.285 81.386 46.295 81.303 46.295 z M 76.896 39.112 c 0.294 0 0.576 0.128 0.769 0.355 l 3.076 3.603 l 0.989 -4.633 c 0.069 -0.326 0.294 -0.596 0.601 -0.723 l 4.377 -1.812 l -4.1 -2.372 c -0.287 -0.167 -0.475 -0.465 -0.502 -0.796 l -0.37 -4.722 l -3.523 3.167 c -0.248 0.223 -0.59 0.31 -0.912 0.231 l -4.607 -1.106 l 1.924 4.328 c 0.135 0.304 0.112 0.656 -0.062 0.939 l -2.476 4.039 l 4.712 -0.491 C 76.826 39.114 76.862 39.112 76.896 39.112 z" style="stroke: none; stroke-width: 1; stroke-dasharray: none; stroke-linecap: butt; stroke-linejoin: miter; stroke-miterlimit: 10; fill: rgb(0,0,0); fill-rule: nonzero; opacity: 1;" transform=" matrix(1 0 0 1 0 0) " stroke-linecap="round" />
	<path d="M 57.506 26.013 c -0.083 0 -0.166 -0.01 -0.249 -0.031 c -0.372 -0.094 -0.66 -0.393 -0.74 -0.769 l -1.586 -7.43 l -7.02 -2.906 c -0.356 -0.147 -0.596 -0.483 -0.622 -0.868 c -0.025 -0.384 0.17 -0.75 0.503 -0.942 l 6.577 -3.804 l 0.594 -7.573 c 0.031 -0.384 0.276 -0.717 0.633 -0.86 c 0.357 -0.141 0.765 -0.07 1.052 0.187 l 5.65 5.079 l 7.388 -1.775 c 0.368 -0.09 0.766 0.04 1.013 0.336 c 0.246 0.296 0.303 0.706 0.147 1.057 l -3.085 6.944 l 3.971 6.477 c 0.201 0.328 0.198 0.742 -0.007 1.068 c -0.204 0.325 -0.581 0.505 -0.96 0.467 l -7.557 -0.788 l -4.933 5.778 C 58.081 25.886 57.797 26.013 57.506 26.013 z M 50.579 13.791 l 5.618 2.326 c 0.307 0.127 0.532 0.397 0.601 0.723 l 1.269 5.946 l 3.948 -4.624 c 0.216 -0.253 0.543 -0.383 0.874 -0.349 l 6.048 0.631 l -3.178 -5.184 c -0.174 -0.283 -0.198 -0.634 -0.062 -0.939 l 2.469 -5.557 l -5.912 1.42 c -0.32 0.079 -0.664 -0.008 -0.912 -0.231 L 56.82 3.889 L 56.344 9.95 c -0.027 0.332 -0.214 0.63 -0.502 0.796 L 50.579 13.791 z M 55.335 9.871 h 0.01 H 55.335 z" style="stroke: none; stroke-width: 1; stroke-dasharray: none; stroke-linecap: butt; stroke-linejoin: miter; stroke-miterlimit: 10; fill: rgb(0,0,0); fill-rule: nonzero; opacity: 1;" transform=" matrix(1 0 0 1 0 0) " stroke-linecap="round" />
</g>
</g>
</svg>